<?xml version="1.0" encoding="utf-8"?>
<!-- Generator: Adobe Illustrator 21.0.0, SVG Export Plug-In . SVG Version: 6.00 Build 0)  -->
<svg version="1.1" id="레이어_1" xmlns="http://www.w3.org/2000/svg" xmlns:xlink="http://www.w3.org/1999/xlink" x="0px"
	 y="0px" viewBox="0 0 1018.4 293" style="enable-background:new 0 0 1018.4 293;" xml:space="preserve">
<style type="text/css">
	.st0{clip-path:url(#SVGID_2_);fill:#ED1C24;}
</style>
<g>
	<defs>
		<rect id="SVGID_1_" width="1018.4" height="293"/>
	</defs>
	<clipPath id="SVGID_2_">
		<use xlink:href="#SVGID_1_"  style="overflow:visible;"/>
	</clipPath>
	<path class="st0" d="M97.1,71.8H44.5c0,0-11.3-0.7-11.3-15.3c0,0-2.7-14,13.3-16.6h81.1V14.6H47.9c0,0-43.2-1.3-44.2,44.2
		c0,0,1,37.6,40.2,36.9h47.2c0,0,18.6,2,17.3,21.3c0,0,1.3,16.6-21.9,19.3H0v25.3h96.4c0,0,44.6-2.7,43.2-46.5
		C139.6,115,141.6,75.8,97.1,71.8"/>
	<path class="st0" d="M228.8,97.8h-48.2v23.9h49.9C266.7,123,263,97.8,263,97.8c0-37.9-54.9-38.9-54.9-38.9
		c-62.5-1.3-61.5,53.2-61.5,53.2c2.3,49.9,52.9,47.5,52.9,47.5h58.9V136h-57.5c-25.9-2.3-27.3-26.3-27.3-26.3
		c4.3-28.3,33.3-26.9,33.3-26.9c20.6,0.3,24.9,9,24.9,9C235.4,98.1,228.8,97.8,228.8,97.8"/>
	<path class="st0" d="M329.8,57.5c-62.9,0.3-59.5,53.5-59.5,53.5s0,54.2,60.8,51.9c60.8-2.3,57.2-50.9,57.2-50.9
		S393,57.2,329.8,57.5 M329.2,136.7c-31.6,0-31.3-26.9-31.3-26.9s-0.7-25.6,30.9-26.6c29.6-0.9,30.6,26.3,30.6,26.3
		S360.8,136.7,329.2,136.7"/>
	<path class="st0" d="M490.4,156.9h11.6v-23.6c-14.3,0.7-15.3-10.6-15.3-10.6V60.5h-25.9v59.8c0,0,0.7,15.6-20,15
		c-20.6-0.7-19.9-16-19.9-16V61.2h-26.3v69.2c0,16.6,22,30.6,45.9,30.6c23.9,0,34.6-10.6,34.6-10.6
		C481.5,157.9,490.4,156.9,490.4,156.9"/>
	<path class="st0" d="M599.5,223.4v-66.5h8c0,0,39.6-2,40.9-44.2c0,0-0.7-35.9-38.2-36.6c-37.6-0.7-39.2,38.6-39.2,38.6v18.6h-26.6
		c0,0-9.6,1-9-12.3V0h-27.3v121c0,0,0.7,31.6,31.2,35.9h32.3v58.2c0,0-82.5-19.6-90.1,38.9c0,0-1.9,33.7,52.2,38.9
		c0,0,43.9,3.7,61.2-41.6c0,0,112.7,51.2,164.9,1.3l-17-21.9C742.8,230.8,703.6,271,599.5,223.4 M534,268.7
		c-23.6-1-22.9-14.6-22.9-14.6c-0.3-5.3,5.3-18.3,28.6-18c23.3,0.3,29.6,5.3,29.6,5.3C569.6,247.4,557.6,269.7,534,268.7
		 M609.5,104.4c11,0,10.6,11,10.6,11s1,18.3-20.6,16.6v-16.6C599.5,115.4,598.5,104.4,609.5,104.4"/>
	<path class="st0" d="M760.1,199.5v-64.8h-27.6v5.7c-18.6-11.6-35.2-9.6-35.2-9.6c-55.2,0.3-55.5,54.2-55.5,54.2
		c2.3,36.9,29.3,51.9,57.9,52.2c28.6,0.3,40.6-13.6,40.6-13.6c8,10.6,18.6,8.6,18.6,8.6h14.6v-24.3
		C760.8,207.8,760.1,199.5,760.1,199.5 M701.6,210.1c-30.9,1.3-30.9-25.9-30.9-25.9s-0.7-27.3,30.3-27.3s31.2,26.3,31.2,26.3
		S732.5,208.8,701.6,210.1"/>
	<path class="st0" d="M874.8,198.5v-41.2c-2.6-20.6-19.6-24.9-39.2-26.9c-19.6-2-31.6,9-31.6,9v-5h-25.3v97.1h25.9v-64.2
		c0,0,1-13.6,21.6-14c23.7-0.4,22.3,19.3,22.3,19.3v29.6c4.6,29.6,28.9,27.6,28.9,27.6h12.3v-23.3
		C875.5,208.5,874.8,198.5,874.8,198.5"/>
	<path class="st0" d="M1003.1,194.8V71.5h-26.6v62.8c-10-5-31.6-7-31.6-7c-35.2,0.3-55.9,25.6-55.5,53.9
		c0.3,28.3,21.6,52.5,53.5,52.5c31.9,0,43.2-15.3,43.2-15.3c5.6,12.6,20,10.3,20,10.3h12.3v-23.3
		C1002.5,206.5,1003.1,194.8,1003.1,194.8 M979.2,181.9c0,22.9-25.9,25.9-30.9,25.6c-5-0.3-30.2-2.3-30.2-26.3
		c0-26.3,30.9-27.3,30.9-27.3C982.9,155.6,979.2,181.9,979.2,181.9"/>
</g>
</svg>
