<?xml version="1.0" encoding="utf-8"?>
<!-- Generator: Adobe Illustrator 21.0.0, SVG Export Plug-In . SVG Version: 6.00 Build 0)  -->
<svg version="1.1" id="Layer_1" xmlns="http://www.w3.org/2000/svg" xmlns:xlink="http://www.w3.org/1999/xlink" x="0px" y="0px"
	 viewBox="0 0 1649 477" style="enable-background:new 0 0 1649 477;" xml:space="preserve">
<style type="text/css">
	.st0{fill:#FFFFFF;}
</style>
<g>
	<path class="st0" d="M170.9,121.9H88c0,0-17.8-1-17.8-24.2c0,0-4.2-22,21-26.2h128.1V31.6h-126c0,0-68.3-2.1-69.8,69.8
		c0,0,1.6,59.3,63.5,58.3h74.5c0,0,29.4,3.2,27.3,33.6c0,0,2.1,26.2-34.6,30.5H17.7v39.9h152.2c0,0,70.3-4.2,68.3-73.5
		C238.1,190.1,241.3,128.2,170.9,121.9z"/>
	<path class="st0" d="M378.8,162.8h-76.1v37.8h78.7c57.2,2.1,51.4-37.8,51.4-37.8c0-59.8-86.6-61.4-86.6-61.4
		c-98.7-2.1-97.1,84-97.1,84c3.7,78.7,83.5,75.1,83.5,75.1h92.9v-37.3h-90.8c-40.9-3.7-43-41.5-43-41.5
		c6.8-44.6,52.5-42.5,52.5-42.5c32.6,0.5,39.4,14.2,39.4,14.2C389.3,163.3,378.8,162.8,378.8,162.8z"/>
	<path class="st0" d="M538.4,99.3c-99.3,0.5-94,84.5-94,84.5s0,85.6,96.1,81.9c96.1-3.7,90.3-80.3,90.3-80.3S638.1,98.8,538.4,99.3z
		 M537.4,224.2c-49.9,0-49.4-42.5-49.4-42.5s-1-40.4,48.8-42c46.7-1.5,48.3,41.5,48.3,41.5S587.3,224.2,537.4,224.2z"/>
	<path class="st0" d="M791.9,256.3h18.4V219c-22.6,1-24.1-16.8-24.1-16.8V104h-40.9v94.5c0,0,1.1,24.7-31.5,23.6
		c-32.5-1.1-31.5-25.2-31.5-25.2v-91.9h-41.5c0,0,0,83,0,109.2c0,26.3,34.7,48.3,72.4,48.3c37.8,0,54.6-16.8,54.6-16.8
		C777.8,257.8,791.9,256.3,791.9,256.3z"/>
	<path class="st0" d="M964.1,361.3v-105h12.6c0,0,62.5-3.2,64.6-69.8c0,0-1.1-56.7-60.3-57.7c-59.4-1-62,60.9-62,60.9V219h-42
		c0,0-15.2,1.6-14.2-19.4V8.5h-43v191.1c0,0,1.1,49.9,49.3,56.7H920v91.8c0,0-130.2-31-142.3,61.4c0,0-3.1,53.3,82.4,61.4
		c0,0,69.3,5.8,96.6-65.6c0,0,177.9,80.8,260.4,2.1l-26.8-34.6C1190.4,372.8,1128.5,436.3,964.1,361.3z M860.7,432.6
		c-37.3-1.6-36.2-23.1-36.2-23.1c-0.5-8.4,8.4-28.9,45.2-28.3c36.8,0.5,46.7,8.4,46.7,8.4C916.9,399,898,434.2,860.7,432.6z
		 M979.9,173.3c17.3,0,16.8,17.3,16.8,17.3s1.6,28.9-32.5,26.2v-26.2C964.1,190.6,962.5,173.3,979.9,173.3z"/>
	<path class="st0" d="M1217.7,323.5V221.1h-43.6v8.9c-29.4-18.4-55.6-15.2-55.6-15.2c-87.1,0.5-87.7,85.6-87.7,85.6
		c3.7,58.3,46.2,81.9,91.4,82.4c45.1,0.5,64.1-21.5,64.1-21.5c12.6,16.8,29.4,13.6,29.4,13.6h23.1v-38.3
		C1218.7,336.6,1217.7,323.5,1217.7,323.5z M1125.3,340.3c-48.8,2.1-48.8-40.9-48.8-40.9s-1-43,47.8-43c48.8,0,49.3,41.5,49.3,41.5
		S1174.1,338.2,1125.3,340.3z"/>
	<path class="st0" d="M1398.8,321.9v-65.1c-4.2-32.5-31-39.4-61.9-42.5c-31-3.2-49.9,14.2-49.9,14.2v-7.9h-39.9v153.3h40.9V272.5
		c0,0,1.6-21.5,34.1-22.1c37.4-0.6,35.2,30.5,35.2,30.5v46.7c7.3,46.7,45.7,43.6,45.7,43.6h19.4v-36.8
		C1399.8,337.6,1398.8,321.9,1398.8,321.9z"/>
	<path class="st0" d="M1601.4,316.1V121.3h-42v99.2c-15.7-7.9-49.8-11-49.8-11c-55.6,0.5-88.2,40.4-87.7,85
		c0.5,44.6,34.1,82.9,84.5,82.9c50.4,0,68.3-24.1,68.3-24.1c8.9,19.9,31.5,16.3,31.5,16.3h19.4v-36.8
		C1600.4,334.5,1601.4,316.1,1601.4,316.1z M1563.6,295.6c0,36.2-40.9,40.9-48.8,40.4c-7.9-0.5-47.8-3.6-47.8-41.5
		c0-41.5,48.8-43,48.8-43C1569.4,254.2,1563.6,295.6,1563.6,295.6z"/>
</g>
</svg>
